<svg xmlns="http://www.w3.org/2000/svg" xmlns:xlink="http://www.w3.org/1999/xlink" width="50" zoomAndPan="magnify" viewBox="0 0 37.5 37.499999" height="50" preserveAspectRatio="xMidYMid meet" version="1.0"><defs><clipPath id="de9c07a4a8"><path d="M 0 4.035156 L 37 4.035156 L 37 32.902344 L 0 32.902344 Z M 0 4.035156 " clip-rule="nonzero"/></clipPath></defs><g clip-path="url(#de9c07a4a8)"><path fill="#e30a03" d="M 9.03125 18.578125 L 14.554688 18.578125 L 14.554688 32.960938 L 0.0117188 32.960938 L 0.0117188 20.839844 C 0.0117188 14.90625 1.457031 10.660156 4.34375 8.082031 C 7.226562 5.507812 11.335938 4.160156 16.667969 4.035156 L 16.742188 9.871094 C 10.386719 10.535156 8.550781 13.316406 9.03125 18.578125 Z M 29.359375 18.578125 L 34.882812 18.578125 L 34.882812 32.960938 L 20.339844 32.960938 L 20.339844 20.839844 C 20.339844 14.90625 21.785156 10.660156 24.667969 8.082031 C 27.554688 5.507812 31.664062 4.160156 36.996094 4.035156 L 36.996094 9.925781 C 30.640625 10.585938 28.878906 13.316406 29.359375 18.578125 Z M 29.359375 18.578125 " fill-opacity="1" fill-rule="nonzero"/></g></svg>